<?xml version="1.0" encoding="UTF-8"?>
<svg id="Layer_2" data-name="Layer 2" xmlns="http://www.w3.org/2000/svg" viewBox="0 0 144 144">
  <defs>
    <style>
      .cls-1 {
        fill: #490b3d;
        stroke: #490b3d;
        stroke-miterlimit: 10;
        stroke-width: 5px;
      }

      .cls-2 {
        fill: #f5f5f5;
      }
    </style>
  </defs>
  <g id="Layer_1-2" data-name="Layer 1">
    <circle class="cls-2" cx="72" cy="72" r="72"/>
    <g>
      <path class="cls-1" d="m62.56,66.91l5.5,2.99c-2,2.79-4.53,5.02-7.59,6.69-3.07,1.67-6.39,2.51-9.97,2.51-4.05,0-7.74-1.04-11.07-3.12-3.33-2.08-5.98-4.88-7.96-8.38-1.98-3.51-2.97-7.38-2.97-11.64,0-3.23.57-6.24,1.72-9.04,1.14-2.8,2.72-5.26,4.73-7.39,2.01-2.13,4.35-3.79,7.02-4.99,2.67-1.2,5.51-1.8,8.54-1.8,3.58,0,6.9.84,9.97,2.51,3.06,1.67,5.59,3.92,7.59,6.73l-5.5,2.95c-1.52-1.94-3.36-3.42-5.5-4.47-2.14-1.04-4.33-1.56-6.56-1.56-2.96,0-5.65.79-8.05,2.35-2.41,1.57-4.31,3.64-5.7,6.23-1.39,2.58-2.09,5.41-2.09,8.49s.71,5.91,2.13,8.49c1.42,2.58,3.34,4.64,5.74,6.18,2.4,1.54,5.06,2.31,7.96,2.31,2.41,0,4.66-.56,6.78-1.67,2.11-1.11,3.87-2.57,5.28-4.36Z"/>
      <path class="cls-1" d="m115.5,84.04v27.24h-6.16v-26c0-2.41-.59-4.59-1.76-6.56-1.17-1.96-2.74-3.53-4.71-4.71-1.97-1.17-4.15-1.76-6.56-1.76s-4.55.59-6.53,1.76-3.56,2.74-4.73,4.71c-1.17,1.97-1.76,4.15-1.76,6.56v26h-6.16V45.28h6.16v28.07c1.55-2.23,3.58-4,6.07-5.32,2.49-1.32,5.21-1.98,8.14-1.98,3.31,0,6.34.81,9.06,2.42,2.73,1.61,4.9,3.78,6.51,6.51,1.61,2.73,2.42,5.75,2.42,9.06Z"/>
    </g>
  </g>
</svg>